<?xml version="1.0" encoding="UTF-8"?>
<svg width="158.75mm" height="158.75mm" version="1.1" viewBox="0 0 158.75 158.75" xmlns="http://www.w3.org/2000/svg">
  <path d="m79.375 0c-43.656 0-79.375 35.719-79.375 79.375s35.719 79.375 79.375 79.375 79.375-35.719 79.375-79.375-35.719-79.375-79.375-79.375zm10.574 17.816c29.567 4.9781 51.868 30.505 51.868 61.559 0 11.531-3.0777 22.298-8.4574 31.536zm-21.169 0.0036-43.4 93.072c-5.3729-9.2342-8.446-19.995-8.446-31.517 0-31.045 22.29-56.568 51.846-61.555zm10.585 17.367 20.111 43.129h-40.223zm-28.008 60.062h56.015l14.142 30.327c-11.081 10.103-25.85 16.239-42.14 16.239-16.296 0-31.071-6.142-42.153-16.252z" stroke-width=".26458"/>
</svg>
