<?xml version="1.0" encoding="UTF-8" standalone="no"?>
<svg xmlns="http://www.w3.org/2000/svg" width="4274" height="3976" viewBox="0 0 4274 3976">
<title>Heart handshake</title>
<g transform="translate(0,3976)scale(1,-1)">
<path fill="#ffffff" d="M511.602,1777.44
C54.2236,2234.82,-9.58984,3040.18,447.774,3497.54
C905.152,3954.93,1646.7,3954.92,2104.08,3497.54L2160,3436.9
C2626.74,3823.4,3365.48,3854.62,3795.96,3424.15
C4253.34,2966.77,4253.34,2225.22,3795.96,1767.85L3774.92,1756
C3787.19,1674.8,3760.98,1588.47,3698.31,1525.83
C3595.33,1422.82,3428.33,1422.85,3325.34,1525.84L3326.3,1522.28
C3429.3,1419.26,3424.8,1252.29,3321.8,1149.3
C3218.8,1046.29,3051.81,1046.31,2948.83,1149.31L2949.78,1145.75
C3052.79,1042.75,3048.28,875.748,2945.29,772.779
C2842.29,669.781,2675.29,669.801,2572.3,772.779L2499.84,844.693
C2602.85,741.695,2602.83,574.723,2499.84,471.734L2238.16,210.035
C2135.16,107.037,1968.16,111.539,1865.17,214.537
C1762.17,317.535,1762.21,484.508,1865.18,587.506L1861.63,586.559
C1758.62,483.561,1591.64,488.053,1488.66,591.051
C1385.64,694.049,1385.67,861.041,1488.66,964.029L1485.12,963.072
C1382.11,860.074,1215.12,864.586,1112.12,967.574
C1009.13,1070.58,1009.16,1237.55,1112.13,1340.54L1108.58,1339.6
C1005.58,1236.61,838.594,1241.09,735.606,1344.09
C657.769,1421.93,638.765,1536.31,678.574,1632Z"/>
<path stroke-width="180" stroke-linecap="round" stroke="#000000" fill="none" d="M2238.16,210.035
C2135.16,107.037,1968.16,111.539,1865.17,214.537
C1762.17,317.535,1762.21,484.508,1865.18,587.506L2126.87,849.195
C2229.87,952.193,2396.87,947.691,2499.84,844.693
C2602.85,741.695,2602.83,574.723,2499.84,471.734Z
M1861.63,586.559
C1758.62,483.561,1591.64,488.053,1488.66,591.051
C1385.64,694.049,1385.67,861.041,1488.66,964.029L1750.34,1225.71
C1853.36,1328.71,2020.36,1324.21,2123.33,1221.23
C2226.33,1118.23,2226.31,951.236,2123.33,848.238Z
M1485.12,963.072
C1382.11,860.074,1215.12,864.586,1112.12,967.574
C1009.13,1070.58,1009.16,1237.55,1112.13,1340.54L1373.83,1602.23
C1476.83,1705.25,1643.83,1700.74,1746.8,1597.74
C1849.82,1494.74,1849.79,1327.75,1746.8,1224.76Z
M1108.58,1339.6
C1005.58,1236.61,838.594,1241.09,735.606,1344.09
C632.608,1447.09,632.627,1614.08,735.615,1717.07L997.3,1978.77
C1100.32,2081.76,1267.29,2077.26,1370.29,1974.26
C1473.29,1871.27,1473.26,1704.27,1370.28,1601.29Z
M2539.38,3059.39L2088.25,2607.87
C1868.95,2385.03,1524.95,2385.03,1312.75,2597.22L2077.95,3362.43
M2075.84,3360.32
C2533.22,3817.7,3338.58,3881.52,3795.96,3424.15
C4253.34,2966.77,4253.34,2225.22,3795.96,1767.85
M2546.84,3054.77L3702.81,1898.79
C3805.83,1795.8,3801.33,1628.81,3698.31,1525.83
C3595.33,1422.82,3428.33,1422.85,3325.34,1525.84
M2547.71,2300.88L3326.3,1522.28
C3429.3,1419.26,3424.8,1252.29,3321.8,1149.3
C3218.8,1046.29,3051.81,1046.31,2948.83,1149.31L2170.24,1927.92
M2949.78,1145.75
C3052.79,1042.75,3048.28,875.748,2945.29,772.779
C2842.29,669.781,2675.29,669.801,2572.3,772.779
M617.393,1671.65L511.602,1777.44
C54.2236,2234.82,-9.58984,3040.18,447.774,3497.54
C905.152,3954.93,1646.7,3954.92,2104.08,3497.54L2136.21,3465.23"/>
</g></svg>