<?xml version="1.0" encoding="utf-8"?>
<!-- Svg Vector Icons : http://www.onlinewebfonts.com/icon -->
<!DOCTYPE svg PUBLIC "-//W3C//DTD SVG 1.1//EN" "http://www.w3.org/Graphics/SVG/1.1/DTD/svg11.dtd">
<svg version="1.1" xmlns="http://www.w3.org/2000/svg" xmlns:xlink="http://www.w3.org/1999/xlink" x="0px" y="0px" viewBox="0 0 1000 1000" enable-background="new 0 0 1000 1000" xml:space="preserve">
<metadata> Svg Vector Icons : http://www.onlinewebfonts.com/icon </metadata>
<g><g transform="translate(0.000000,511.000000) scale(0.100000,-0.100000)"><path d="M4565.5,4656.6c-211.9-18-543.8-74-767.8-128c-337.9-84-599.8-177.9-935.7-337.9c-297.9-141.9-345.9-185.9-345.9-309.9c0-58,1341.6-2755.2,1405.6-2823.2c78-86,148-80,375.9,32c279.9,137.9,413.9,170,697.8,170c277.9,0,457.9-44,717.8-178c96-50,191.9-90,213.9-90c20,0,68,18,102,40c58,34,155.9,222,755.8,1419.6c379.9,759.8,689.8,1403.6,689.8,1431.6c0,110-54,163.9-259.9,267.9c-535.8,267.9-1125.7,439.9-1727.5,497.9C5285.3,4668.6,4755.5,4672.6,4565.5,4656.6z"/><path d="M4795.5,829.7c-385.9-66-757.8-427.9-841.8-817.8c-34-154-12-463.9,38-597.8c138-353.9,467.9-623.8,839.8-685.8c523.8-88,1055.7,261.9,1193.6,785.8c88,329.9-10,725.8-245.9,979.7C5529.3,765.7,5157.4,891.7,4795.5,829.7z"/><path d="M1764.3-6C132.8-106,174.8-100,114.8-212c-30-56-12-461.9,32-755.8c207.9-1347.6,979.7-2557.3,2123.4-3323c247.9-167.9,307.9-185.9,411.9-120c34,20,377.9,523.9,903.7,1323.6c667.8,1011.7,849.8,1301.6,849.8,1351.6c0,80-56,150-174,219.9c-459.9,263.9-727.8,711.8-755.8,1255.6c-10,221.9-34,279.9-140,323.9c-38,16-72,26-74,26C3287.9,87.9,2602.1,45.9,1764.3-6z"/><path d="M6622.9,61.9c-112-48-132-92-140-293.9c-12-261.9-58-451.9-158-651.8c-138-271.9-331.9-479.9-583.8-625.8c-130-74-185.9-144-185.9-227.9c0-50,175.9-331.9,849.8-1351.6c531.8-805.8,869.7-1301.6,903.7-1321.6c104-66,164-48,411.9,118C9006.2-3429.1,9818-2005.5,9888-493.9l12,263.9l-60,60c-34,32-90,64-128,70c-38,6-701.8,46-1477.6,92c-775.8,44-1441.6,84-1481.6,88C6714.9,83.9,6654.9,75.9,6622.9,61.9z"/></g></g>
</svg>