<?xml version="1.0" encoding="utf-8"?>
<!-- Svg Vector Icons : http://www.onlinewebfonts.com/icon -->
<!DOCTYPE svg PUBLIC "-//W3C//DTD SVG 1.1//EN" "http://www.w3.org/Graphics/SVG/1.1/DTD/svg11.dtd">
<svg version="1.1" xmlns="http://www.w3.org/2000/svg" xmlns:xlink="http://www.w3.org/1999/xlink" x="0px" y="0px" viewBox="0 0 1000 1000" enable-background="new 0 0 1000 1000" xml:space="preserve">
<metadata> Svg Vector Icons : http://www.onlinewebfonts.com/icon </metadata>
<g><path d="M210.1,455.1c-16.3-44.9-28.6-77.6-36.7-102.1c-8.2-24.5-12.2-44.9-12.2-69.4C161.1,136.6,279.5,10,500,10c130.7,0,338.9,73.5,338.9,261.3c0,57.2-8.2,122.5-32.7,167.4C794,459.2,794,508.2,794,544.9l36.7-12.2c40.8-12.2,28.6-49,81.7-65.3c49-16.3,61.3,24.5,53.1,73.5c-8.2,20.4,24.5,40.8,24.5,73.5c0,28.6-16.3,49-40.8,49c-36.8,0-40.8-28.6-159.3,24.5l-61.3,28.6v44.9c0,0,73.5,40.8,102.1,57.1c28.6,16.3,61.3-12.2,98-8.2c28.6,0,36.8,28.6,32.7,44.9c-4.1,16.3-20.4,40.8-49,57.1c-16.3,8.2,8.2,77.6-49,77.6c-36.8,0-57.2-49-89.8-65.3c-32.7-12.3-122.5-53.1-122.5-53.1C614.3,908.3,557.2,941,500,941c-65.3,0-118.4-40.8-159.2-69.4l-114.3,40.8c-57.2,20.4-44.9,57.2-93.9,69.4c-28.6,8.2-49-12.2-49-44.9c0-12.2,4.1-44.9,0-53.1c-8.2-8.2-40.8-36.8-44.9-57.2c-8.2-32.7,24.5-40.8,53.1-40.8c24.5,0,49,12.2,61.3,12.2c28.6,0,114.3-28.6,114.3-73.5c0-8.2,0-16.3-4.1-28.6c-49-12.2-110.3-65.3-155.2-65.3c-12.2,0-24.5,8.2-36.7,8.2c-24.5,0-61.3-16.3-61.3-53.1c0-28.6,36.7-44.9,36.7-53.1c-4.1-53.1,20.4-81.7,49-73.5c53.1,16.3,28.6,49,118.4,69.4v-73.5H210.1z M259.1,642.9c-4.1-20.4-12.3-44.9-24.5-53.1c-32.7-16.3-77.6-36.8-89.8-49c-28.6-16.3-32.7-36.7-40.8-44.9c-12.2-8.2-24.5,16.3-20.4,32.7C91.7,549,59,553.1,59,565.3c0,8.2,8.2,24.5,20.4,20.4c12.2-4.1,28.6-24.5,77.6,0L259.1,642.9L259.1,642.9z M304,830.7l-24.5-32.7l-106.2,40.8c-24.5,8.2-44.9-8.2-61.3-12.2c-12.2,0-16.3,4.1-16.3,12.2c0,16.3,32.7,32.7,28.6,40.8c-4.1,28.6,0,44.9,8.2,44.9c28.6,4.1,20.4-40.8,77.6-61.3L304,830.7L304,830.7z M373.4,651.1c8.2,36.7,49,49,122.5,49c28.6,0,110.2-8.2,114.3-36.8c12.2-40.8,12.2-40.8,40.8-49c32.7-8.2,93.9-24.5,93.9-93.9c0-24.5-16.3-32.7-24.5-73.5c-4.1-16.3-8.2-36.8-8.2-65.3c0-36.7,0-36.7,28.6-151.1c4.1,16.3,12.2,36.7,12.2,53.1c0,81.7-16.3,118.4-16.3,130.7c0,8.2,4.1,20.4,4.1,32.7c32.7-61.3,44.9-122.5,44.9-151.1C785.8,140.7,618.4,59,487.8,59c-167.4,0-289.9,93.9-289.9,228.7c0,49,20.4,114.3,40.8,147c12.2-8.2,16.3-32.7,16.3-40.8c0-16.3-8.2-32.7-12.2-61.3c-4.1-12.2-4.1-24.5-4.1-40.8c0-16.3,0-32.7,8.2-49c12.3,53.1,32.7,77.6,32.7,130.7c0,28.6-4.1,49-8.2,65.3c-8.2,36.7-24.5,53.1-24.5,77.6C246.8,622.5,361.2,573.5,373.4,651.1L373.4,651.1z M304,630.7L304,630.7c12.2,24.5,16.3,130.7,16.3,138.8C320.3,794,434.7,892,500,892c61.3,0,98-16.3,175.6-114.3c4.1-93.9,8.2-126.6,16.3-142.9c-32.7,4.1-36.8,28.6-36.8,57.2c0,93.9-102.1,126.6-151.1,126.6c-106.2,0-155.2-69.4-155.2-93.9c0-36.8,0-57.2-8.2-77.6L304,630.7L304,630.7z M389.7,369.3c49,0,65.3,32.7,65.3,73.5c0,49-32.7,98-89.8,98c-53.1,0-65.3-40.8-65.3-81.7C304,406.1,332.6,369.3,389.7,369.3L389.7,369.3z M361.2,720.5l12.2,8.1v-28.6l-12.2-4.1V720.5L361.2,720.5z M381.6,728.7l16.3,4.1v-28.6l-16.3-4.1V728.7L381.6,728.7z M381.6,765.4l16.3,12.2v-28.6l-16.3-4.1V765.4L381.6,765.4z M406.1,781.8l20.4,8.1v-32.7l-20.4-4.1V781.8L406.1,781.8z M410.2,740.9l20.4,4.1v-36.8l-20.4-4.1V740.9L410.2,740.9z M438.8,749.1l20.4,4.1v-36.8l-20.4-4.1V749.1L438.8,749.1z M438.8,798.1l20.4,4.1v-36.8l-20.4-4.1V798.1L438.8,798.1z M500,508.2c24.5,0,61.3,93.9,61.3,110.3c0,16.3-8.2,24.5-24.5,24.5c-16.3,0-32.7-32.7-36.7-49h-4.1c-12.2,44.9-24.5,49-32.7,49c-16.3,0-20.4-12.2-20.4-32.7C442.8,577.6,475.5,508.2,500,508.2L500,508.2z M471.4,757.2h20.4v-40.8h-20.4V757.2L471.4,757.2z M471.4,806.3h24.5v-36.8h-24.5V806.3L471.4,806.3z M504.1,761.3h20.4v-40.8h-20.4V761.3L504.1,761.3z M504.1,806.3h24.5v-36.8h-24.5V806.3L504.1,806.3z M606.2,361.2c49,0,81.7,32.7,81.7,81.7c0,69.4-32.7,93.9-57.1,93.9c-57.2,0-98-36.7-98-93.9C536.7,406.1,565.3,361.2,606.2,361.2L606.2,361.2z M536.7,753.2l20.4-4.1v-36.7l-20.4,4.1V753.2L536.7,753.2z M540.8,802.2l20.4-4.1v-36.7l-20.4,4.1V802.2L540.8,802.2z M569.4,745l20.4-4.1v-36.8l-20.4,4.1V745L569.4,745z M573.5,789.9l20.4-8.1v-32.7l-20.4,4.1V789.9L573.5,789.9z M602.1,732.8l16.3-4.1v-28.6l-16.3,4.1V732.8L602.1,732.8z M602.1,773.6l16.3-12.2V745l-16.3,4.1V773.6L602.1,773.6z M622.5,720.5l12.2-4.1v-24.5l-12.2,4.1V720.5L622.5,720.5z M691.9,838.9l114.3,61.3c36.8,20.4,20.4,40.8,49,40.8c12.2,0,16.3-20.4,12.2-36.7c-4.1-12.3,36.8-8.2,36.8-32.7c0-8.1-12.3-12.2-16.3-12.2c-16.3,0-28.6,12.2-65.3,0l-114.4-57.1L691.9,838.9L691.9,838.9z M928.8,618.4c8.2,0,20.4-8.2,20.4-20.4c0-12.3-24.5-24.5-24.5-36.8c0-8.2,4.1-20.4,4.1-28.6c0-12.2-12.2-16.3-20.4-16.3c-24.5,4.1-20.4,40.9-57.2,53.1l-81.7,24.5c-12.2,20.4-32.7,36.8-40.8,65.4c0,0,130.7-49,142.9-53.1C892,602.1,920.6,618.4,928.8,618.4z"/></g>
</svg>